# xmcd CD database file
#
# Track frame offsets:
#	182
#	12207
#	24162
#	38592
#	51152
#	62242
#	80210
#	95100
#	107577
#	121247
#	134530
#	146102
#
# Disc length: 2157 seconds
#
# Revision: 2
# Processed by: cddbd v1.5.2PL0 Copyright (c) Steve Scherf et al.
# Submitted via: CDex 1.51
#
DISCID=a4086b0c
DTITLE=Reba McEntire - Country Superstar Disc 1
DYEAR=1995
DGENRE=Country
TTITLE0=Why Do We Want (What We Know We Can't Have)
TTITLE1=I Sacrificed More Than You'll Ever Lose
TTITLE2=Love Isn't Love (If You Give It Away)
TTITLE3=(You Lift Me) Up To Heaven
TTITLE4=Can't Even Get The Blues
TTITLE5=I Never Stopped Dreaming Of You
TTITLE6=Today All Over Again
TTITLE7=I'm Not That Lonely Yet
TTITLE8=Sweet Dreams
TTITLE9=Runaway Heart
TTITLE10=(I Still Long To Hold You ) Now And Then
TTITLE11=We'll Waltz In Love Tonight
EXTD=YEAR: 1995
EXTT0=
EXTT1=
EXTT2=
EXTT3=
EXTT4=
EXTT5=
EXTT6=
EXTT7=
EXTT8=
EXTT9=
EXTT10=
EXTT11=
PLAYORDER=
